<svg id="Layer_1" data-name="Layer 1" xmlns="http://www.w3.org/2000/svg" xmlns:xlink="http://www.w3.org/1999/xlink" viewBox="0 0 130 60"><defs><style>.cls-1{fill:#262262;}.cls-2{fill:url(#linear-gradient);}.cls-3{fill:#808285;}</style><linearGradient id="linear-gradient" x1="174.22" y1="11.6" x2="218.4" y2="11.6" gradientTransform="matrix(-1, 0, 0, 1, 274.05, 0)" gradientUnits="userSpaceOnUse"><stop offset="0" stop-color="#1c75bc"/><stop offset="0.55" stop-color="#662d91"/><stop offset="1" stop-color="#262262"/></linearGradient></defs><path class="cls-1" d="M22.49,11V24h-3.4V11H14.42V8.09H27.14V11Z"/><path class="cls-1" d="M36.45,24V16.62c0-1.16-1-1.84-2.22-1.84a2.32,2.32,0,0,0-2.4,2.5V24H28.6V8.09l3.23-2.55v7.85a4,4,0,0,1,3-1.19c2.38,0,4.82,1.47,4.82,4.42V24Z"/><path class="cls-1" d="M44.6,19.07a2.79,2.79,0,0,0,2.83,2.37,4.08,4.08,0,0,0,2.73-1l2,1.89a6.57,6.57,0,0,1-4.77,1.87,5.92,5.92,0,0,1-6.26-6.16,5.74,5.74,0,0,1,5.88-5.86c3.36,0,5.63,2.22,5.63,6.41v.46Zm2.45-4.17a2.28,2.28,0,0,0-2.32,2h4.39A2,2,0,0,0,47.05,14.9Z"/><path class="cls-1" d="M30.94,51l-1.65-3.8H21.17L19.53,51H14.15L25.23,27.31,36.31,51ZM25.23,37.84l-2.37,5.49h4.75Z"/><path class="cls-1" d="M49.73,51V49.5a7,7,0,0,1-4.68,1.83c-5.08,0-9.14-3.65-9.14-8.7s4.06-8.7,9.14-8.7a7,7,0,0,1,4.68,1.83V28l4.68-3.7V51ZM45.05,38c-2.49,0-4.35,1.64-4.35,4.64s1.86,4.64,4.35,4.64c3.11,0,4.68-1.79,4.68-4.64S48.16,38,45.05,38Z"/><path class="cls-1" d="M70.5,51V49.5a7,7,0,0,1-4.68,1.83c-5.08,0-9.14-3.65-9.14-8.7s4.06-8.7,9.14-8.7a7,7,0,0,1,4.68,1.83V28l4.68-3.7V51ZM65.82,38c-2.48,0-4.35,1.64-4.35,4.64s1.87,4.64,4.35,4.64c3.11,0,4.68-1.79,4.68-4.64S68.93,38,65.82,38Z"/><path class="cls-1" d="M87.51,29.69a2.52,2.52,0,0,0-1.65-.48,2.14,2.14,0,0,0-2.19,2.38v2.67h3.66v3.8H83.67V51H79V38.06H76.87v-3.8H79V31.59c0-4.79,3.22-6.37,6.65-6.37a8.46,8.46,0,0,1,4.79,1.47Z"/><path class="cls-1" d="M90.25,51V28l4.68-3.7V51Z"/><path class="cls-1" d="M104.11,59.82H99l4.61-10L96.69,34.26H102l4.21,10.2,4.46-10.2h5.16Z"/><path class="cls-2" d="M59.87,14.57H75.32l5-6.4,4.15-5.36h-24v.6A.59.59,0,0,0,61,4H79.75a1.32,1.32,0,0,1,1.32,1.31,1.3,1.3,0,0,1-1,1.24,1.35,1.35,0,0,1-.36.07H64.23v.61a.59.59,0,0,0,.59.59H76.73A1.32,1.32,0,0,1,78,9.15h0a1.31,1.31,0,0,1-1.31,1.31H68.05v.6a.6.6,0,0,0,.6.6h5.17a1.31,1.31,0,1,1,0,2.62H68.65a3.22,3.22,0,0,1-3.22-3.22v-.61h-.61A3.22,3.22,0,0,1,61.6,7.24V6.63H61a3.23,3.23,0,0,1-3.22-3.22V.18h32l-8.6,11.1L76.6,17.19H59.87a1.6,1.6,0,1,0,0,3.19h29l4-1.6-4-1.59H82.52a1.3,1.3,0,0,1-.36-2.55,1.44,1.44,0,0,1,.36-.07h6.85l10.46,4.21L89.37,23H59.87a4.22,4.22,0,1,1,0-8.44Z"/><path class="cls-3" d="M17.31,57.78l-.45-1.1H15.23l-.44,1.1h-.53l1.79-4.22,1.79,4.22Zm-1.26-3.13-.66,1.65h1.32Z"/><path class="cls-3" d="M20.85,57.78V55.9a.72.72,0,0,0-.78-.8.82.82,0,0,0-.85.87v1.81h-.46v-3h.46v.44a1,1,0,0,1,.93-.49,1.08,1.08,0,0,1,1.17,1.17v1.88Z"/><path class="cls-3" d="M25.47,57.84A1.56,1.56,0,1,1,27,56.28,1.54,1.54,0,0,1,25.47,57.84Zm0-2.7a1.14,1.14,0,1,0,1.08,1.14A1.08,1.08,0,0,0,25.47,55.14Z"/><path class="cls-3" d="M30.13,57.78V55.9a.73.73,0,0,0-.79-.8.83.83,0,0,0-.85.87v1.81H28v-3h.46v.44a1,1,0,0,1,.93-.49,1.08,1.08,0,0,1,1.17,1.17v1.88Z"/><path class="cls-3" d="M31.72,57.78V53.54l.47-.46v4.7Z"/><path class="cls-3" d="M33.56,53.92a.29.29,0,1,1,0-.57.29.29,0,1,1,0,.57Zm-.23,3.86v-3h.46v3Z"/><path class="cls-3" d="M37,57.78V55.9a.73.73,0,0,0-.79-.8.82.82,0,0,0-.84.87v1.81h-.47v-3h.47v.44a1,1,0,0,1,.92-.49A1.08,1.08,0,0,1,37.5,55.9v1.88Z"/><path class="cls-3" d="M39,56.38a1,1,0,0,0,1,1,1.21,1.21,0,0,0,.79-.27l.3.31a1.6,1.6,0,0,1-1.09.38,1.48,1.48,0,0,1-1.5-1.61,1.41,1.41,0,0,1,1.41-1.5c.68,0,1.34.45,1.34,1.61v0Zm.91-1.24A.91.91,0,0,0,39,56h1.71A.83.83,0,0,0,39.92,55.14Z"/><path class="cls-3" d="M45.28,53.64a.59.59,0,0,0-.33-.1c-.36,0-.44.2-.44.66v.58h.63v.4h-.63v2.6H44v-2.6h-.39v-.4H44V54.2c0-.67.31-1,.91-1a1,1,0,0,1,.59.19Z"/><path class="cls-3" d="M47.6,55.26a.79.79,0,0,0-.4-.12.7.7,0,0,0-.71.8v1.84H46v-3h.47v.42a.8.8,0,0,1,.76-.47,1.07,1.07,0,0,1,.66.21Z"/><path class="cls-3" d="M48.83,56.38a1,1,0,0,0,1,1,1.24,1.24,0,0,0,.8-.27l.3.31a1.65,1.65,0,0,1-1.1.38,1.48,1.48,0,0,1-1.49-1.61,1.41,1.41,0,0,1,1.41-1.5c.67,0,1.33.45,1.33,1.61v0Zm.91-1.24a.91.91,0,0,0-.89.84h1.71A.82.82,0,0,0,49.74,55.14Z"/><path class="cls-3" d="M52.45,56.38a1,1,0,0,0,1,1,1.24,1.24,0,0,0,.8-.27l.3.31a1.65,1.65,0,0,1-1.1.38A1.48,1.48,0,0,1,52,56.23a1.41,1.41,0,0,1,1.41-1.5c.67,0,1.33.45,1.33,1.61v0Zm.91-1.24a.91.91,0,0,0-.89.84h1.71A.82.82,0,0,0,53.36,55.14Z"/><path class="cls-3" d="M55.69,57.78V53.54l.46-.46v4.7Z"/><path class="cls-3" d="M59.69,57.78V57.3a1.27,1.27,0,0,1-1.06.53,1.51,1.51,0,0,1-1.48-1.55,1.49,1.49,0,0,1,1.48-1.55,1.28,1.28,0,0,1,1.06.51v-.46h.46v3Zm-1.06-2.64a1,1,0,0,0-1,1.14,1,1,0,0,0,1,1.14,1.14,1.14,0,0,0,0-2.28Z"/><path class="cls-3" d="M63.39,57.78V55.9a.73.73,0,0,0-.79-.8.83.83,0,0,0-.85.87v1.81h-.46v-3h.46v.44a1,1,0,0,1,.93-.49,1.08,1.08,0,0,1,1.17,1.17v1.88Z"/><path class="cls-3" d="M66.35,57.84a1.49,1.49,0,0,1-1.51-1.56,1.46,1.46,0,0,1,1.51-1.55,1.61,1.61,0,0,1,1.08.38l-.3.3a1.23,1.23,0,0,0-.78-.27,1.15,1.15,0,0,0,0,2.28,1.23,1.23,0,0,0,.78-.27l.3.3A1.61,1.61,0,0,1,66.35,57.84Z"/><path class="cls-3" d="M68.69,56.38a1,1,0,0,0,1,1,1.23,1.23,0,0,0,.79-.27l.3.31a1.62,1.62,0,0,1-1.09.38,1.48,1.48,0,0,1-1.5-1.61,1.41,1.41,0,0,1,1.41-1.5c.68,0,1.34.45,1.34,1.61v0Zm.91-1.24a.92.92,0,0,0-.89.84h1.71A.82.82,0,0,0,69.6,55.14Z"/><path class="cls-3" d="M75.93,57.78V57.3a1.23,1.23,0,0,1-1.05.53,1.51,1.51,0,0,1-1.49-1.55,1.49,1.49,0,0,1,1.49-1.55,1.24,1.24,0,0,1,1.05.51v-.46h.47v3Zm-1.05-2.64a1,1,0,0,0-1,1.14,1,1,0,0,0,1,1.14,1.14,1.14,0,0,0,0-2.28Z"/><path class="cls-3" d="M78.87,59.36a1.7,1.7,0,0,1-1.26-.47l.29-.31a1.31,1.31,0,0,0,1,.39,1,1,0,0,0,1.06-1.1V57.3a1.23,1.23,0,0,1-1.06.54,1.51,1.51,0,0,1-1.48-1.56,1.49,1.49,0,0,1,1.48-1.55,1.28,1.28,0,0,1,1.06.51v-.46h.46v3.09A1.43,1.43,0,0,1,78.87,59.36Zm0-4.22a1,1,0,0,0-1,1.14,1,1,0,0,0,1,1.14,1.14,1.14,0,0,0,0-2.28Z"/><path class="cls-3" d="M81.91,56.38a1,1,0,0,0,1,1,1.23,1.23,0,0,0,.79-.27l.3.31a1.62,1.62,0,0,1-1.09.38,1.48,1.48,0,0,1-1.5-1.61,1.41,1.41,0,0,1,1.41-1.5c.68,0,1.34.45,1.34,1.61v0Zm.92-1.24a.92.92,0,0,0-.9.84h1.71A.81.81,0,0,0,82.83,55.14Z"/><path class="cls-3" d="M87.25,57.78V55.9a.73.73,0,0,0-.79-.8.82.82,0,0,0-.84.87v1.81h-.47v-3h.47v.44a1,1,0,0,1,.92-.49,1.08,1.08,0,0,1,1.18,1.17v1.88Z"/><path class="cls-3" d="M90.21,57.84a1.5,1.5,0,0,1-1.51-1.56,1.46,1.46,0,0,1,1.51-1.55,1.61,1.61,0,0,1,1.08.38l-.3.3a1.23,1.23,0,0,0-.78-.27,1.15,1.15,0,0,0,0,2.28,1.23,1.23,0,0,0,.78-.27l.3.3A1.61,1.61,0,0,1,90.21,57.84Z"/><path class="cls-3" d="M92.9,59.36h-.51l.76-1.75L92,54.78h.53l.92,2.28,1-2.28h.5Z"/></svg>